<svg width="18" height="18" viewBox="0 0 18 18" fill="none" xmlns="http://www.w3.org/2000/svg">
<circle cx="9" cy="9" r="9" fill="#CB1E40"/>
<path d="M9.43636 4L9.34545 11.0021H8.29091L8.2 4H9.43636ZM8.81818 13.8182C8.59394 13.8182 8.40152 13.7341 8.24091 13.5661C8.0803 13.398 8 13.1966 8 12.9619C8 12.7273 8.0803 12.5259 8.24091 12.3578C8.40152 12.1897 8.59394 12.1057 8.81818 12.1057C9.04242 12.1057 9.23485 12.1897 9.39545 12.3578C9.55606 12.5259 9.63636 12.7273 9.63636 12.9619C9.63636 13.1173 9.59848 13.26 9.52273 13.3901C9.45 13.5201 9.35152 13.6247 9.22727 13.704C9.10606 13.7801 8.9697 13.8182 8.81818 13.8182Z" fill="white"/>
</svg>
