<svg width="18" height="18" viewBox="0 0 18 18" fill="none" xmlns="http://www.w3.org/2000/svg">
<circle cx="9" cy="9" r="9" fill="#CB1E40"/>
<path d="M9.618 4.90906L9.5271 11.9112H8.47255L8.38164 4.90906H9.618ZM8.99982 14.7272C8.77558 14.7272 8.58316 14.6432 8.42255 14.4751C8.26194 14.307 8.18164 14.1057 8.18164 13.871C8.18164 13.6363 8.26194 13.435 8.42255 13.2669C8.58316 13.0988 8.77558 13.0148 8.99982 13.0148C9.22406 13.0148 9.41649 13.0988 9.5771 13.2669C9.7377 13.435 9.818 13.6363 9.818 13.871C9.818 14.0264 9.78013 14.1691 9.70437 14.2991C9.63164 14.4291 9.53316 14.5338 9.40891 14.6131C9.2877 14.6892 9.15134 14.7272 8.99982 14.7272Z" fill="white"/>
</svg>
