<svg width="14" height="14" viewBox="0 0 14 14" fill="none" xmlns="http://www.w3.org/2000/svg">
<g clip-path="url(#clip0_2001_4004)">
<path d="M13.5625 9.625C13.321 9.625 13.125 9.82102 13.125 10.0625V13.125H0.875014V10.0625C0.875014 9.82098 0.678998 9.625 0.437525 9.625C0.196052 9.625 0 9.82098 0 10.0625V13.5625C0 13.804 0.196015 14 0.437489 14H13.5625C13.804 14 14 13.8039 14 13.5625V10.0625C14 9.82098 13.804 9.625 13.5625 9.625Z" fill="#CB1E40"/>
<path d="M6.68765 10.373C6.85765 10.5415 7.14215 10.5432 7.31212 10.373L10.3707 7.3539C10.5433 7.18281 10.5429 6.90585 10.3707 6.7352C10.1985 6.56411 9.91885 6.56411 9.74667 6.7352L7.44147 9.01047V0.437539C7.44147 0.196002 7.24393 0 7.00008 0C6.75623 0 6.55869 0.196038 6.55869 0.437539V9.01047L4.25349 6.7352C4.08088 6.56411 3.80164 6.56411 3.62946 6.7352C3.45685 6.90628 3.45685 7.18325 3.62946 7.3539L6.68765 10.373Z" fill="#CB1E40"/>
</g>
<defs>
<clipPath id="clip0_2001_4004">
<rect width="14" height="14" fill="white"/>
</clipPath>
</defs>
</svg>
