<svg width="222" height="142" viewBox="0 0 222 142" fill="none" xmlns="http://www.w3.org/2000/svg">
<path opacity="0.5" d="M0 0H222V127C222 135.284 215.284 142 207 142H15C6.71573 142 0 135.284 0 127V0Z" fill="#F5F5F5"/>
<g clip-path="url(#clip0_2001_3654)">
<path d="M70.8257 102.434V109.874H69.9248V103.233H66.1755V109.874H65.2746V102.434H70.8257ZM72.6431 109.874V102.434H75.1571C75.7408 102.434 76.218 102.539 76.5885 102.75C76.9615 102.958 77.2376 103.24 77.4169 103.596C77.5961 103.952 77.6857 104.35 77.6857 104.788C77.6857 105.226 77.5961 105.625 77.4169 105.983C77.2401 106.342 76.9664 106.628 76.5958 106.841C76.2252 107.051 75.7505 107.157 75.1717 107.157H73.3697V106.357H75.1426C75.5422 106.357 75.8632 106.288 76.1054 106.15C76.3476 106.012 76.5231 105.826 76.6321 105.591C76.7435 105.354 76.7993 105.086 76.7993 104.788C76.7993 104.49 76.7435 104.224 76.6321 103.989C76.5231 103.754 76.3463 103.57 76.1017 103.437C75.8571 103.301 75.5326 103.233 75.1281 103.233H73.5441V109.874H72.6431ZM85.4148 106.154C85.4148 106.939 85.2732 107.617 84.9898 108.189C84.7064 108.76 84.3177 109.201 83.8236 109.511C83.3295 109.821 82.7652 109.976 82.1306 109.976C81.4961 109.976 80.9318 109.821 80.4377 109.511C79.9436 109.201 79.5549 108.76 79.2715 108.189C78.9881 107.617 78.8464 106.939 78.8464 106.154C78.8464 105.369 78.9881 104.691 79.2715 104.12C79.5549 103.548 79.9436 103.107 80.4377 102.797C80.9318 102.487 81.4961 102.332 82.1306 102.332C82.7652 102.332 83.3295 102.487 83.8236 102.797C84.3177 103.107 84.7064 103.548 84.9898 104.12C85.2732 104.691 85.4148 105.369 85.4148 106.154ZM84.5429 106.154C84.5429 105.51 84.4351 104.966 84.2196 104.523C84.0065 104.08 83.717 103.744 83.3513 103.517C82.988 103.289 82.5811 103.175 82.1306 103.175C81.6801 103.175 81.272 103.289 80.9063 103.517C80.543 103.744 80.2536 104.08 80.038 104.523C79.8249 104.966 79.7183 105.51 79.7183 106.154C79.7183 106.798 79.8249 107.342 80.038 107.785C80.2536 108.228 80.543 108.564 80.9063 108.792C81.272 109.019 81.6801 109.133 82.1306 109.133C82.5811 109.133 82.988 109.019 83.3513 108.792C83.717 108.564 84.0065 108.228 84.2196 107.785C84.4351 107.342 84.5429 106.798 84.5429 106.154ZM86.9298 102.434H88.0051L90.5337 108.61H90.6209L93.1494 102.434H94.2248V109.874H93.3819V104.221H93.3093L90.9842 109.874H90.1704L87.8453 104.221H87.7726V109.874H86.9298V102.434ZM96.6998 105.558H98.8214C99.3542 105.558 99.8035 105.645 100.169 105.82C100.537 105.994 100.816 106.24 101.005 106.557C101.196 106.875 101.292 107.249 101.292 107.68C101.292 108.111 101.196 108.491 101.005 108.821C100.816 109.15 100.537 109.408 100.169 109.594C99.8035 109.781 99.3542 109.874 98.8214 109.874H96.0313V102.434H96.9323V109.089H98.8214C99.1605 109.089 99.4475 109.022 99.6824 108.886C99.9198 108.748 100.099 108.571 100.22 108.356C100.344 108.138 100.405 107.908 100.405 107.665C100.405 107.309 100.269 107.003 99.9949 106.746C99.7212 106.487 99.33 106.357 98.8214 106.357H96.6998V105.558ZM102.919 102.434V109.874H102.018V102.434H102.919ZM104.723 102.434H105.624V109.046H108.24V102.434H109.141V109.046H111.757V102.434H112.658V109.874H104.723V102.434ZM113.825 109.874V109.046H114.043C114.353 109.046 114.594 108.947 114.766 108.748C114.938 108.549 115.061 108.228 115.136 107.785C115.214 107.342 115.266 106.755 115.292 106.023L115.423 102.434H119.957V109.874H119.056V103.233H116.281L116.164 106.198C116.135 106.978 116.064 107.641 115.95 108.189C115.836 108.736 115.636 109.154 115.351 109.442C115.065 109.73 114.648 109.874 114.101 109.874H113.825ZM121.757 109.874V102.434H126.248V103.233H122.658V105.747H126.015V106.546H122.658V109.075H126.306V109.874H121.757ZM127.872 109.874V102.434H128.773V105.747H132.74V102.434H133.641V109.874H132.74V106.546H128.773V109.874H127.872ZM135.444 109.874V102.434H136.345V105.747H140.313V102.434H141.214V109.874H140.313V106.546H136.345V109.874H135.444ZM149.295 106.154C149.295 106.939 149.153 107.617 148.87 108.189C148.587 108.76 148.198 109.201 147.704 109.511C147.21 109.821 146.646 109.976 146.011 109.976C145.376 109.976 144.812 109.821 144.318 109.511C143.824 109.201 143.435 108.76 143.152 108.189C142.868 107.617 142.727 106.939 142.727 106.154C142.727 105.369 142.868 104.691 143.152 104.12C143.435 103.548 143.824 103.107 144.318 102.797C144.812 102.487 145.376 102.332 146.011 102.332C146.646 102.332 147.21 102.487 147.704 102.797C148.198 103.107 148.587 103.548 148.87 104.12C149.153 104.691 149.295 105.369 149.295 106.154ZM148.423 106.154C148.423 105.51 148.315 104.966 148.1 104.523C147.887 104.08 147.597 103.744 147.232 103.517C146.868 103.289 146.461 103.175 146.011 103.175C145.56 103.175 145.152 103.289 144.787 103.517C144.423 103.744 144.134 104.08 143.918 104.523C143.705 104.966 143.599 105.51 143.599 106.154C143.599 106.798 143.705 107.342 143.918 107.785C144.134 108.228 144.423 108.564 144.787 108.792C145.152 109.019 145.56 109.133 146.011 109.133C146.461 109.133 146.868 109.019 147.232 108.792C147.597 108.564 147.887 108.228 148.1 107.785C148.315 107.342 148.423 106.798 148.423 106.154ZM150.81 109.874V102.434H155.3V103.233H151.711V105.747H155.068V106.546H151.711V109.075H155.359V109.874H150.81Z" fill="#5D6670"/>
<path d="M41.2759 120.565L38.7183 117.15H37.8028V120.565H36.9018V113.124H37.8028V116.351H38.1951L41.1742 113.124H42.2495L39.2414 116.394L42.3512 120.565H41.2759ZM49.4437 116.845C49.4437 117.629 49.302 118.308 49.0186 118.879C48.7353 119.451 48.3465 119.891 47.8525 120.201C47.3584 120.512 46.7941 120.667 46.1595 120.667C45.5249 120.667 44.9606 120.512 44.4665 120.201C43.9725 119.891 43.5837 119.451 43.3004 118.879C43.017 118.308 42.8753 117.629 42.8753 116.845C42.8753 116.06 43.017 115.382 43.3004 114.81C43.5837 114.239 43.9725 113.798 44.4665 113.488C44.9606 113.178 45.5249 113.023 46.1595 113.023C46.7941 113.023 47.3584 113.178 47.8525 113.488C48.3465 113.798 48.7353 114.239 49.0186 114.81C49.302 115.382 49.4437 116.06 49.4437 116.845ZM48.5718 116.845C48.5718 116.2 48.464 115.657 48.2485 115.213C48.0353 114.77 47.7459 114.435 47.3802 114.207C47.0169 113.979 46.61 113.866 46.1595 113.866C45.709 113.866 45.3009 113.979 44.9352 114.207C44.5719 114.435 44.2825 114.77 44.0669 115.213C43.8538 115.657 43.7472 116.2 43.7472 116.845C43.7472 117.489 43.8538 118.033 44.0669 118.476C44.2825 118.919 44.5719 119.255 44.9352 119.482C45.3009 119.71 45.709 119.824 46.1595 119.824C46.61 119.824 47.0169 119.71 47.3802 119.482C47.7459 119.255 48.0353 118.919 48.2485 118.476C48.464 118.033 48.5718 117.489 48.5718 116.845ZM50.2421 113.924V113.124H55.8223V113.924H53.4827V120.565H52.5817V113.924H50.2421ZM57.2128 120.565V113.124H61.7032V113.924H58.1138V116.438H61.4707V117.237H58.1138V119.766H61.7613V120.565H57.2128ZM62.6877 120.565V119.736H62.9057C63.2157 119.736 63.4567 119.637 63.6286 119.439C63.8006 119.24 63.9241 118.919 63.9992 118.476C64.0767 118.033 64.1288 117.445 64.1554 116.714L64.2862 113.124H68.8201V120.565H67.9192V113.924H65.1436L65.0273 116.888C64.9983 117.668 64.9268 118.332 64.813 118.879C64.6992 119.426 64.4993 119.844 64.2135 120.132C63.9278 120.421 63.5112 120.565 62.9638 120.565H62.6877ZM71.2888 116.249H73.4104C73.9432 116.249 74.3925 116.336 74.7582 116.51C75.1264 116.685 75.4049 116.931 75.5938 117.248C75.7852 117.565 75.8808 117.939 75.8808 118.37C75.8808 118.802 75.7852 119.182 75.5938 119.511C75.4049 119.841 75.1264 120.099 74.7582 120.285C74.3925 120.472 73.9432 120.565 73.4104 120.565H70.6203V113.124H71.5213V119.78H73.4104C73.7495 119.78 74.0365 119.712 74.2714 119.577C74.5088 119.439 74.688 119.262 74.8091 119.046C74.9326 118.828 74.9944 118.598 74.9944 118.356C74.9944 118 74.8575 117.694 74.5839 117.437C74.3102 117.178 73.919 117.048 73.4104 117.048H71.2888V116.249ZM77.304 120.565V113.124H78.205V116.438H82.1722V113.124H83.0732V120.565H82.1722V117.237H78.205V120.565H77.304ZM91.1547 116.845C91.1547 117.629 91.0131 118.308 90.7297 118.879C90.4463 119.451 90.0576 119.891 89.5635 120.201C89.0694 120.512 88.5051 120.667 87.8705 120.667C87.236 120.667 86.6717 120.512 86.1776 120.201C85.6835 119.891 85.2948 119.451 85.0114 118.879C84.728 118.308 84.5863 117.629 84.5863 116.845C84.5863 116.06 84.728 115.382 85.0114 114.81C85.2948 114.239 85.6835 113.798 86.1776 113.488C86.6717 113.178 87.236 113.023 87.8705 113.023C88.5051 113.023 89.0694 113.178 89.5635 113.488C90.0576 113.798 90.4463 114.239 90.7297 114.81C91.0131 115.382 91.1547 116.06 91.1547 116.845ZM90.2828 116.845C90.2828 116.2 90.175 115.657 89.9595 115.213C89.7464 114.77 89.4569 114.435 89.0912 114.207C88.7279 113.979 88.321 113.866 87.8705 113.866C87.42 113.866 87.0119 113.979 86.6462 114.207C86.2829 114.435 85.9935 114.77 85.7779 115.213C85.5648 115.657 85.4582 116.2 85.4582 116.845C85.4582 117.489 85.5648 118.033 85.7779 118.476C85.9935 118.919 86.2829 119.255 86.6462 119.482C87.0119 119.71 87.42 119.824 87.8705 119.824C88.321 119.824 88.7279 119.71 89.0912 119.482C89.4569 119.255 89.7464 118.919 89.9595 118.476C90.175 118.033 90.2828 117.489 90.2828 116.845ZM92.6697 120.565V113.124H97.16V113.924H93.5707V116.438H96.9275V117.237H93.5707V119.766H97.2182V120.565H92.6697ZM107.939 116.845C107.939 117.629 107.797 118.308 107.514 118.879C107.231 119.451 106.842 119.891 106.348 120.201C105.854 120.512 105.289 120.667 104.655 120.667C104.02 120.667 103.456 120.512 102.962 120.201C102.468 119.891 102.079 119.451 101.796 118.879C101.512 118.308 101.371 117.629 101.371 116.845C101.371 116.06 101.512 115.382 101.796 114.81C102.079 114.239 102.468 113.798 102.962 113.488C103.456 113.178 104.02 113.023 104.655 113.023C105.289 113.023 105.854 113.178 106.348 113.488C106.842 113.798 107.231 114.239 107.514 114.81C107.797 115.382 107.939 116.06 107.939 116.845ZM107.067 116.845C107.067 116.2 106.959 115.657 106.744 115.213C106.531 114.77 106.241 114.435 105.876 114.207C105.512 113.979 105.105 113.866 104.655 113.866C104.204 113.866 103.796 113.979 103.431 114.207C103.067 114.435 102.778 114.77 102.562 115.213C102.349 115.657 102.243 116.2 102.243 116.845C102.243 117.489 102.349 118.033 102.562 118.476C102.778 118.919 103.067 119.255 103.431 119.482C103.796 119.71 104.204 119.824 104.655 119.824C105.105 119.824 105.512 119.71 105.876 119.482C106.241 119.255 106.531 118.919 106.744 118.476C106.959 118.033 107.067 117.489 107.067 116.845ZM109.454 120.565V113.124H113.944V113.924H110.355V116.249H112.244C112.777 116.249 113.226 116.336 113.592 116.51C113.96 116.685 114.239 116.931 114.428 117.248C114.619 117.565 114.715 117.939 114.715 118.37C114.715 118.802 114.619 119.182 114.428 119.511C114.239 119.841 113.96 120.099 113.592 120.285C113.226 120.472 112.777 120.565 112.244 120.565H109.454ZM110.355 119.78H112.244C112.583 119.78 112.87 119.712 113.105 119.577C113.342 119.439 113.522 119.262 113.643 119.046C113.766 118.828 113.828 118.598 113.828 118.356C113.828 118 113.691 117.694 113.418 117.437C113.144 117.178 112.753 117.048 112.244 117.048H110.355V119.78ZM122.475 116.845C122.475 117.629 122.334 118.308 122.05 118.879C121.767 119.451 121.378 119.891 120.884 120.201C120.39 120.512 119.826 120.667 119.191 120.667C118.557 120.667 117.992 120.512 117.498 120.201C117.004 119.891 116.615 119.451 116.332 118.879C116.049 118.308 115.907 117.629 115.907 116.845C115.907 116.06 116.049 115.382 116.332 114.81C116.615 114.239 117.004 113.798 117.498 113.488C117.992 113.178 118.557 113.023 119.191 113.023C119.826 113.023 120.39 113.178 120.884 113.488C121.378 113.798 121.767 114.239 122.05 114.81C122.334 115.382 122.475 116.06 122.475 116.845ZM121.604 116.845C121.604 116.2 121.496 115.657 121.28 115.213C121.067 114.77 120.778 114.435 120.412 114.207C120.049 113.979 119.642 113.866 119.191 113.866C118.741 113.866 118.333 113.979 117.967 114.207C117.604 114.435 117.314 114.77 117.099 115.213C116.886 115.657 116.779 116.2 116.779 116.845C116.779 117.489 116.886 118.033 117.099 118.476C117.314 118.919 117.604 119.255 117.967 119.482C118.333 119.71 118.741 119.824 119.191 119.824C119.642 119.824 120.049 119.71 120.412 119.482C120.778 119.255 121.067 118.919 121.28 118.476C121.496 118.033 121.604 117.489 121.604 116.845ZM123.99 120.565V113.124H126.504C127.088 113.124 127.565 113.23 127.936 113.441C128.309 113.649 128.585 113.931 128.764 114.287C128.943 114.643 129.033 115.04 129.033 115.479C129.033 115.917 128.943 116.315 128.764 116.674C128.587 117.032 128.314 117.318 127.943 117.531C127.573 117.742 127.098 117.847 126.519 117.847H124.717V117.048H126.49C126.89 117.048 127.21 116.979 127.453 116.841C127.695 116.703 127.87 116.516 127.979 116.282C128.091 116.044 128.147 115.777 128.147 115.479C128.147 115.181 128.091 114.914 127.979 114.679C127.87 114.444 127.694 114.26 127.449 114.127C127.204 113.992 126.88 113.924 126.475 113.924H124.891V120.565H123.99ZM130.877 120.667V119.824H131.342C131.521 119.824 131.671 119.789 131.792 119.718C131.916 119.648 132.017 119.557 132.097 119.446C132.18 119.334 132.248 119.218 132.301 119.097L132.417 118.821L129.845 113.124H130.819L132.868 117.746L134.742 113.124H135.701L133.129 119.359C133.027 119.591 132.911 119.807 132.78 120.005C132.652 120.204 132.476 120.364 132.254 120.485C132.033 120.606 131.734 120.667 131.356 120.667H130.877ZM136.229 122.367V119.766H136.709C136.873 119.615 137.028 119.403 137.174 119.13C137.321 118.854 137.446 118.486 137.548 118.025C137.652 117.563 137.721 116.975 137.755 116.263L137.915 113.124H142.332V119.766H143.19V122.352H142.332V120.565H137.086V122.367H136.229ZM137.784 119.766H141.475V113.924H138.728L138.612 116.263C138.583 116.806 138.532 117.298 138.46 117.738C138.387 118.177 138.294 118.565 138.18 118.905C138.066 119.241 137.934 119.528 137.784 119.766ZM150.829 116.845C150.829 117.629 150.687 118.308 150.404 118.879C150.121 119.451 149.732 119.891 149.238 120.201C148.744 120.512 148.179 120.667 147.545 120.667C146.91 120.667 146.346 120.512 145.852 120.201C145.358 119.891 144.969 119.451 144.686 118.879C144.402 118.308 144.261 117.629 144.261 116.845C144.261 116.06 144.402 115.382 144.686 114.81C144.969 114.239 145.358 113.798 145.852 113.488C146.346 113.178 146.91 113.023 147.545 113.023C148.179 113.023 148.744 113.178 149.238 113.488C149.732 113.798 150.121 114.239 150.404 114.81C150.687 115.382 150.829 116.06 150.829 116.845ZM149.957 116.845C149.957 116.2 149.849 115.657 149.634 115.213C149.421 114.77 149.131 114.435 148.765 114.207C148.402 113.979 147.995 113.866 147.545 113.866C147.094 113.866 146.686 113.979 146.32 114.207C145.957 114.435 145.668 114.77 145.452 115.213C145.239 115.657 145.132 116.2 145.132 116.845C145.132 117.489 145.239 118.033 145.452 118.476C145.668 118.919 145.957 119.255 146.32 119.482C146.686 119.71 147.094 119.824 147.545 119.824C147.995 119.824 148.402 119.71 148.765 119.482C149.131 119.255 149.421 118.919 149.634 118.476C149.849 118.033 149.957 117.489 149.957 116.845ZM152.344 120.565V113.124H154.945C155.463 113.124 155.891 113.214 156.228 113.393C156.564 113.57 156.815 113.809 156.98 114.109C157.144 114.407 157.227 114.738 157.227 115.101C157.227 115.421 157.17 115.685 157.056 115.893C156.944 116.101 156.797 116.266 156.613 116.387C156.431 116.508 156.234 116.598 156.021 116.656V116.728C156.248 116.743 156.477 116.823 156.707 116.968C156.937 117.113 157.13 117.322 157.285 117.593C157.44 117.864 157.517 118.196 157.517 118.588C157.517 118.961 157.433 119.297 157.263 119.595C157.093 119.893 156.826 120.129 156.46 120.303C156.094 120.478 155.618 120.565 155.032 120.565H152.344ZM153.245 119.766H155.032C155.621 119.766 156.039 119.652 156.286 119.424C156.535 119.194 156.66 118.915 156.66 118.588C156.66 118.337 156.596 118.104 156.467 117.891C156.339 117.675 156.156 117.503 155.919 117.375C155.681 117.244 155.4 117.179 155.076 117.179H153.245V119.766ZM153.245 116.394H154.916C155.187 116.394 155.432 116.341 155.65 116.234C155.87 116.128 156.045 115.978 156.173 115.784C156.304 115.59 156.369 115.362 156.369 115.101C156.369 114.774 156.255 114.497 156.028 114.269C155.8 114.039 155.439 113.924 154.945 113.924H153.245V116.394ZM159.303 120.565H158.358L161.09 113.124H162.02L164.752 120.565H163.808L161.584 114.302H161.526L159.303 120.565ZM159.652 117.658H163.459V118.458H159.652V117.658ZM165.911 120.565V113.124H166.812V116.438H170.779V113.124H171.68V120.565H170.779V117.237H166.812V120.565H165.911ZM173.484 113.124H174.371V118.981H174.443L178.512 113.124H179.384V120.565H178.483V114.723H178.411L174.356 120.565H173.484V113.124ZM181.187 120.565V113.124H185.677V113.924H182.088V116.438H185.445V117.237H182.088V119.766H185.735V120.565H181.187Z" fill="#5D6670"/>
<path d="M117.135 22.3795C123.943 22.3795 130.254 24.5128 135.434 28.1423C128.532 21.8432 119.35 18 109.269 18C93.9044 18 80.6262 26.9299 74.3348 39.8779H88.6429C93.9161 29.4946 104.692 22.3795 117.135 22.3795Z" fill="#A12743"/>
<path d="M101.145 91.6971C94.3364 91.6971 88.0256 89.5637 82.8456 85.9342C89.747 92.2334 98.9296 96.0765 109.01 96.0765C124.375 96.0765 137.653 87.1466 143.944 74.1987H129.636C124.363 84.578 113.587 91.6971 101.145 91.6971Z" fill="#A12743"/>
<path d="M101.142 84.2431C101.212 84.2431 101.282 84.2392 101.352 84.2392C102.479 84.2314 103.594 84.1459 104.698 83.9905C107.705 83.5203 110.495 82.4011 112.916 80.7768C110.655 81.6317 108.21 82.1058 105.65 82.1058C97.7884 82.1058 90.9685 77.6991 87.5372 71.2368H82.4039H79.369C83.4104 79.168 91.8662 84.2431 101.142 84.2431Z" fill="#5D6670"/>
<path d="M96.7962 71.2407H94.0799C95.5333 74.2057 98.813 76.3935 102.753 76.6499C103.581 76.7044 104.389 76.6655 105.167 76.5528C101.378 76.2225 98.234 74.1047 96.7962 71.2407Z" fill="#5D6670"/>
<path d="M117.322 29.7817C117.252 29.7817 117.182 29.7856 117.112 29.7856C115.985 29.7934 114.87 29.8789 113.767 30.0343C110.759 30.5045 107.969 31.6237 105.548 33.248C107.809 32.3931 110.254 31.919 112.815 31.919C120.672 31.919 127.496 36.3257 130.927 42.788H136.06H139.095C135.054 34.8568 126.598 29.7817 117.322 29.7817Z" fill="#5D6670"/>
<path d="M121.667 42.7809H124.383C122.93 39.8159 119.65 37.6281 115.71 37.3717C114.882 37.3173 114.074 37.3561 113.296 37.4688C117.085 37.7991 120.229 39.9208 121.667 42.7809Z" fill="#5D6670"/>
<path d="M70.7183 62.047L64.3609 49.577H61.6873L69.6496 65.0858H71.7869L79.7492 49.577H77.0951L70.7183 62.047Z" fill="#A5243C"/>
<path d="M81.2761 65.0858H93.8977V62.4783H83.5844V58.6429H91.8925V56.016H83.5844V52.1806H93.8977V49.577H81.2761V65.0858Z" fill="#A5243C"/>
<path d="M95.1756 52.1807H100.904V65.0859H103.216V52.1807H108.924V49.5771H95.1756V52.1807Z" fill="#A5243C"/>
<path d="M121.792 56.6609C121.792 56.7774 121.757 56.8707 121.687 56.9406C121.617 57.0106 121.531 57.0495 121.43 57.0495H112.99C112.901 57.0495 112.823 57.0145 112.753 56.9406C112.683 56.8707 112.648 56.7774 112.648 56.6609V52.569C112.648 52.4679 112.683 52.3786 112.753 52.3008C112.823 52.2231 112.901 52.1842 112.99 52.1842H121.43C121.531 52.1842 121.617 52.2231 121.687 52.3008C121.757 52.3786 121.792 52.4679 121.792 52.569V56.6609ZM122.814 49.9965C122.425 49.7322 121.998 49.6001 121.524 49.6001H110.355V65.0895H112.648V59.6841L117.447 59.6725L121.469 65.0895H124.045V64.4871L120.439 59.6647L121.524 59.6608C121.994 59.6608 122.425 59.5326 122.814 59.2722C123.202 59.0119 123.513 58.6621 123.75 58.2152C123.987 57.7684 124.104 57.2904 124.104 56.7735V52.5068C124.104 51.9744 123.987 51.4925 123.75 51.0534C123.513 50.6104 123.202 50.2607 122.814 49.9965Z" fill="#A5243C"/>
<path d="M137.507 62.0899C137.507 62.2065 137.472 62.2998 137.402 62.3697C137.332 62.4396 137.246 62.4785 137.145 62.4785H128.705C128.616 62.4785 128.534 62.4435 128.468 62.3697C128.398 62.2998 128.363 62.2065 128.363 62.0899V52.5694C128.363 52.4567 128.398 52.3634 128.468 52.2896C128.538 52.2157 128.619 52.1808 128.705 52.1808H137.145C137.246 52.1808 137.332 52.2157 137.402 52.2896C137.472 52.3595 137.507 52.4528 137.507 52.5694V62.0899ZM138.529 49.9619C138.14 49.7054 137.709 49.5733 137.238 49.5733H128.647C128.176 49.5733 127.741 49.7015 127.349 49.9619C126.952 50.2222 126.641 50.572 126.412 51.0189C126.183 51.4657 126.07 51.9515 126.07 52.4839V62.1754C126.07 62.7078 126.187 63.1935 126.412 63.6404C126.641 64.0873 126.952 64.437 127.349 64.6974C127.745 64.9577 128.176 65.086 128.647 65.086H137.238C137.709 65.086 138.14 64.9577 138.529 64.6974C138.917 64.437 139.228 64.0873 139.465 63.6404C139.702 63.1935 139.819 62.7078 139.819 62.1754V52.4839C139.819 51.9515 139.702 51.4657 139.465 51.0189C139.228 50.572 138.917 50.2222 138.529 49.9619Z" fill="#A5243C"/>
<path d="M155.607 53.5175V52.4839C155.607 51.9515 155.49 51.4657 155.253 51.0189C155.016 50.5759 154.705 50.2222 154.317 49.9619C153.928 49.7015 153.497 49.5733 153.026 49.5733H144.415C143.945 49.5733 143.514 49.7015 143.125 49.9619C142.736 50.2222 142.429 50.572 142.2 51.0189C141.971 51.4657 141.854 51.9515 141.854 52.4839V55.7364C141.854 56.2688 141.971 56.7506 142.2 57.1897C142.429 57.6288 142.736 57.9786 143.125 58.2467C143.514 58.511 143.941 58.647 144.415 58.647H152.929C153.03 58.647 153.116 58.6819 153.186 58.7558C153.256 58.8257 153.291 58.9151 153.291 59.0122V62.0938C153.291 62.2104 153.256 62.3036 153.186 62.3736C153.116 62.4474 153.03 62.4824 152.929 62.4824H144.489C144.388 62.4824 144.306 62.4474 144.24 62.3736C144.178 62.3036 144.143 62.2104 144.143 62.0938V61.1456H141.85V62.1793C141.85 62.7117 141.967 63.1974 142.196 63.6443C142.426 64.0912 142.733 64.4409 143.121 64.7013C143.51 64.9616 143.937 65.0898 144.411 65.0898H153.023C153.493 65.0898 153.924 64.9616 154.313 64.7013C154.701 64.4409 155.012 64.0912 155.249 63.6443C155.482 63.1974 155.603 62.7117 155.603 62.1793V58.9267C155.603 58.3944 155.486 57.9125 155.249 57.4734C155.012 57.0343 154.701 56.6846 154.313 56.4164C153.924 56.1522 153.493 56.0201 153.023 56.0201H144.489C144.388 56.0201 144.306 55.9851 144.24 55.9113C144.178 55.8413 144.143 55.7519 144.143 55.6548V52.5732C144.143 52.4605 144.174 52.3634 144.24 52.2934C144.302 52.2235 144.388 52.1846 144.489 52.1846H152.929C153.03 52.1846 153.116 52.2196 153.186 52.2934C153.256 52.3673 153.291 52.4605 153.291 52.5732V53.5214H155.607V53.5175Z" fill="#A5243C"/>
</g>
<defs>
<clipPath id="clip0_2001_3654">
<rect width="150.775" height="105" fill="white" transform="translate(36 18)"/>
</clipPath>
</defs>
</svg>
