<svg width="60" height="23" viewBox="0 0 60 23" fill="none" xmlns="http://www.w3.org/2000/svg">
<g clip-path="url(#clip0_206_510)">
<path d="M10.2242 2.05874C10.6432 2.05874 10.9812 1.71074 10.9812 1.27937C10.9812 0.847998 10.6432 0.5 10.2242 0.5C9.80527 0.5 9.46729 0.847998 9.46729 1.27937C9.46729 1.71074 9.80527 2.05874 10.2242 2.05874Z" fill="#57585A"/>
<path d="M26.4864 13.8798H24.6099L27.1483 0.5L31.3485 10.1642L35.591 0.5L37.8724 13.8798H35.9958L34.7671 6.38334L31.257 14.003L27.7715 6.36884L26.4899 13.8798H26.4864Z" fill="#57585A"/>
<path d="M38.8477 0.626874H40.8474L44.0337 8.95708L47.2903 0.5L50.4378 8.95708L53.7332 0.637749H55.733L50.3287 13.8762L47.1812 5.06022L43.9949 13.8762L38.8477 0.626874Z" fill="#57585A"/>
<path d="M58.1479 0.5H59.9998V13.8798H58.1479V0.5Z" fill="#57585A"/>
<path fill-rule="evenodd" clip-rule="evenodd" d="M26.1239 21.4017C26.571 21.4017 26.8668 21.1914 26.9618 21.0247V21.3582H27.3949V17.4504H26.9618V18.7844C26.7999 18.6177 26.5429 18.5053 26.1521 18.5053C25.4092 18.5053 24.7896 19.1034 24.7896 19.9662C24.7896 20.8289 25.3423 21.398 26.1274 21.398L26.1239 21.4017ZM26.9618 19.3173V20.4447C26.8527 20.6658 26.5851 20.9739 26.1767 20.9739C25.638 20.9739 25.2437 20.5969 25.2437 19.9589C25.2437 19.3209 25.6909 18.9294 26.2014 18.9294C26.5534 18.9294 26.7964 19.0672 26.9583 19.3173H26.9618Z" fill="#57585A"/>
<path fill-rule="evenodd" clip-rule="evenodd" d="M28.715 17.6606C28.715 17.5084 28.5917 17.396 28.4439 17.396C28.2819 17.396 28.1587 17.5084 28.1587 17.6606C28.1587 17.8274 28.2819 17.9397 28.4439 17.9397C28.5917 17.9397 28.715 17.8274 28.715 17.6606ZM28.6481 18.5632H28.215V21.3581H28.6481V18.5632Z" fill="#57585A"/>
<path fill-rule="evenodd" clip-rule="evenodd" d="M30.7145 22.4746C31.4046 22.4746 31.9292 22.0868 31.9292 21.1407V18.5524H31.482V18.8025C31.3588 18.6503 31.0771 18.498 30.6723 18.498C29.9294 18.498 29.3203 19.0418 29.3203 19.9444C29.3203 20.847 29.859 21.3908 30.6723 21.3908C31.13 21.3908 31.3201 21.253 31.4961 21.0428V21.2095C31.4961 21.7243 31.225 22.0288 30.7004 22.0288C30.2674 22.0288 30.0104 21.8185 29.9048 21.6119L29.514 21.7932C29.6618 22.21 30.123 22.4746 30.7145 22.4746ZM31.4996 19.3318V20.4592C31.4046 20.7238 31.1335 20.9884 30.7427 20.9739C30.1618 20.9739 29.785 20.5969 29.785 19.9589C29.785 19.3209 30.2322 18.9294 30.7427 18.9294C31.1088 18.9294 31.3764 19.1107 31.4996 19.3318Z" fill="#57585A"/>
<path fill-rule="evenodd" clip-rule="evenodd" d="M33.253 17.6606C33.253 17.5084 33.1298 17.396 32.982 17.396C32.82 17.396 32.6968 17.5084 32.6968 17.6606C32.6968 17.8274 32.82 17.9397 32.982 17.9397C33.1298 17.9397 33.253 17.8274 33.253 17.6606ZM33.1862 18.5632H32.7531V21.3581H33.1862V18.5632Z" fill="#57585A"/>
<path d="M33.7286 18.5669H34.2955V17.8564H34.7285V18.5669H35.6615V18.9983H34.7285V20.2236C34.7285 20.7782 34.8764 20.9594 35.2003 20.9594C35.3904 20.9594 35.5383 20.8761 35.6861 20.7637L35.8868 21.0972C35.7249 21.2784 35.4538 21.3908 35.1158 21.3908C34.5877 21.3908 34.2919 21.0283 34.2919 20.3323V18.9983H33.7251V18.5669H33.7286Z" fill="#57585A"/>
<path fill-rule="evenodd" clip-rule="evenodd" d="M37.4004 18.4943C37.0097 18.4943 36.5766 18.6611 36.3196 18.8967L36.5344 19.2302C36.7914 19.0345 37.0343 18.9257 37.3441 18.9257C37.911 18.9257 38.0729 19.2592 38.0729 19.7595C37.9391 19.7196 37.6399 19.6761 37.4392 19.6761C36.6576 19.6761 36.1436 19.9262 36.1436 20.5388C36.1436 21.0536 36.5344 21.3871 37.1294 21.3871C37.6011 21.3871 37.9145 21.1768 38.0764 20.9412V21.3581H38.5095V19.6181C38.5095 18.9076 38.1328 18.4907 37.4004 18.4907V18.4943ZM38.0764 20.1618V20.441C37.9814 20.6621 37.6856 20.9847 37.2244 20.9847C36.8583 20.9847 36.6048 20.818 36.6048 20.5243C36.6048 20.1908 36.9428 20.0785 37.4955 20.0785C37.7103 20.0785 37.9426 20.1183 38.0764 20.1618Z" fill="#57585A"/>
<path d="M39.291 17.4395H39.7241V21.3617H39.291V17.4395Z" fill="#57585A"/>
<path fill-rule="evenodd" clip-rule="evenodd" d="M43.2906 18.4943C42.8998 18.4943 42.4667 18.6611 42.2097 18.8967L42.4245 19.2302C42.6815 19.0345 42.9244 18.9257 43.2343 18.9257C43.8011 18.9257 43.963 19.2592 43.963 19.7595C43.8293 19.7196 43.53 19.6761 43.3293 19.6761C42.5477 19.6761 42.0337 19.9262 42.0337 20.5388C42.0337 21.0536 42.4245 21.3871 43.0195 21.3871C43.4913 21.3871 43.8011 21.1768 43.963 20.9412V21.3581H44.3961V19.6181C44.3961 18.9076 44.0194 18.4907 43.2871 18.4907L43.2906 18.4943ZM43.9666 20.1618V20.441C43.8715 20.6621 43.5758 20.9847 43.1146 20.9847C42.7519 20.9847 42.4949 20.818 42.4949 20.5243C42.4949 20.1908 42.8329 20.0785 43.3856 20.0785C43.6004 20.0785 43.8328 20.1183 43.9666 20.1618Z" fill="#57585A"/>
<path fill-rule="evenodd" clip-rule="evenodd" d="M46.382 22.4746C47.0721 22.4746 47.5966 22.0868 47.5966 21.1407V18.5524H47.1495V18.8025C47.0263 18.6503 46.7446 18.498 46.3397 18.498C45.5969 18.498 44.9878 19.0418 44.9878 19.9444C44.9878 20.847 45.53 21.3908 46.3397 21.3908C46.7974 21.3908 46.9876 21.253 47.1636 21.0428V21.2095C47.1636 21.7243 46.8925 22.0288 46.3679 22.0288C45.9349 22.0288 45.6779 21.8185 45.5722 21.6119L45.1814 21.7932C45.3293 22.21 45.7905 22.4746 46.382 22.4746ZM47.153 19.3318V20.4592C47.0721 20.7238 46.801 20.9884 46.3961 20.9739C45.8152 20.9739 45.4384 20.5969 45.4384 19.9589C45.4384 19.3209 45.8856 18.9294 46.3961 18.9294C46.7622 18.9294 47.0298 19.1107 47.153 19.3318Z" fill="#57585A"/>
<path fill-rule="evenodd" clip-rule="evenodd" d="M49.6526 21.416C50.0997 21.416 50.4764 21.2203 50.7334 20.8324L50.4483 20.5678C50.2863 20.8034 49.9906 20.9846 49.6631 20.9846C49.1104 20.9846 48.7055 20.6802 48.6773 20.1074H50.8109C50.8391 19.9805 50.8391 19.8718 50.8391 19.7739C50.8391 18.9945 50.2969 18.5088 49.5822 18.5088C48.6773 18.5088 48.2056 19.1468 48.2056 19.9697C48.2056 20.8469 48.7865 21.416 49.6526 21.416ZM50.3814 19.705H48.6668C48.7337 19.2447 49.0576 18.9112 49.5575 18.9257C50.0434 18.9257 50.3532 19.2048 50.3814 19.705Z" fill="#57585A"/>
<path d="M51.4482 18.5668H51.8813V18.9293C52.0573 18.6502 52.4235 18.5125 52.8143 18.5125C53.5184 18.5125 53.9092 18.8894 53.9092 19.7776V21.3617H53.4762V19.8319C53.4762 19.2193 53.2192 18.9402 52.6805 18.9402C52.3425 18.9402 52.0327 19.1613 51.8848 19.5093V21.3581H51.4518V18.5632L51.4482 18.5668Z" fill="#57585A"/>
<path d="M57.0675 20.7782C56.8668 21.1805 56.3774 21.4053 55.9479 21.4053C55.0818 21.4053 54.5044 20.8362 54.5044 19.9589C54.5044 19.1397 55.0712 18.498 55.9232 18.498C56.4091 18.498 56.8421 18.7192 57.0182 19.0672L56.6802 19.3028C56.4901 19.0382 56.2612 18.9258 55.9232 18.9258C55.3705 18.9258 54.9515 19.3572 54.9515 19.9553C54.9515 20.5534 55.3564 20.9848 55.9796 20.9848C56.3035 20.9848 56.5746 20.818 56.7365 20.5534L57.0745 20.7745L57.0675 20.7782Z" fill="#57585A"/>
<path d="M57.7575 22.0287C57.7962 22.0432 57.8244 22.0577 57.8666 22.0577C58.0673 22.0577 58.2046 21.9199 58.3947 21.474L58.4757 21.2638L57.166 18.5813H57.68L58.694 20.6947L59.465 18.5813H59.9368L58.9088 21.3363C58.5426 22.2824 58.261 22.5035 57.8807 22.5035C57.7716 22.5035 57.666 22.4745 57.585 22.4347L57.761 22.0323L57.7575 22.0287Z" fill="#57585A"/>
<path d="M16.829 13.8652H19.7864L20.4624 12.698H16.0439L14.111 18.2333L12.8823 15.9532L10.7875 19.89V3.04468H9.65381V22.3332H10.7875L12.8823 18.2152L14.1779 21.0101L14.4877 20.1618L14.7588 19.4405" fill="#57585A"/>
<path d="M3.63338 11.5126H0.661894L0 12.6799H4.4185L6.35137 7.13003L7.56601 9.42464L9.66084 5.48791V22.3296H10.8086V3.04468H9.66084L7.5801 7.16265L6.28447 4.3678L5.97465 5.21604H5.96057L5.70356 5.92654V5.94104" fill="#57585A"/>
</g>
<defs>
<clipPath id="clip0_206_510">
<rect width="60" height="22" fill="white" transform="translate(0 0.5)"/>
</clipPath>
</defs>
</svg>
