<svg width="258" height="203" viewBox="0 0 258 203" fill="none" xmlns="http://www.w3.org/2000/svg">
<g clip-path="url(#clip0_2001_3770)">
<path opacity="0.2" d="M101.284 155.055C70.1811 131.864 50.0953 102.267 41.308 70.8425C47.017 118.266 73.2135 164.137 119.264 198.473C189.458 250.813 286.722 262.141 368.536 234.414L303.171 185.675C236.52 207.133 158.128 197.44 101.284 155.055Z" fill="white"/>
<path opacity="0.2" d="M130.774 126.315C131.093 126.554 131.429 126.777 131.748 127.015C136.928 130.825 142.374 134.299 148.053 137.468C163.721 145.929 181.054 151.184 198.772 153.264C184.936 148.805 171.826 142.279 160.127 133.556C124.232 106.791 111.121 66.8165 121.934 30.5936L98.4824 13.1074L84.6177 2.76934C70.5709 46.6471 88.3983 94.7186 130.774 126.315Z" fill="white"/>
<path opacity="0.2" d="M164.207 62.1665L151.798 52.9138C146.285 69.1211 152.3 88.5992 169.25 102.995C172.808 106.021 176.66 108.627 180.673 110.847C164.718 96.6866 159.053 77.9225 164.207 62.1665Z" fill="white"/>
</g>
<defs>
<clipPath id="clip0_2001_3770">
<rect width="258" height="203" fill="white"/>
</clipPath>
</defs>
</svg>
