<svg width="21" height="28" viewBox="0 0 21 28" fill="none" xmlns="http://www.w3.org/2000/svg">
<path d="M16.1216 17.7907C15.4335 17.1177 13.4709 17.3028 12.4896 17.4262C11.5196 16.8374 10.8711 16.0242 10.4143 14.8297C10.6342 13.9269 10.9839 12.5529 10.7188 11.6893C10.4819 10.22 8.58701 10.3658 8.31631 11.3584C8.06816 12.2613 8.29375 13.5175 8.71108 15.1213C8.14712 16.4616 7.30681 18.2618 6.71465 19.2936C5.58672 19.8712 4.06402 20.7629 3.83844 21.8845C3.65233 22.7705 5.30474 24.98 8.1302 20.1348C9.39348 19.7198 10.7696 19.2095 11.9877 19.0076C13.0536 19.5796 14.3 19.9609 15.1346 19.9609C16.5727 19.9609 16.7137 18.3795 16.1216 17.7907ZM4.94944 22.1536C5.23707 21.3854 6.33116 20.4993 6.66389 20.1909C5.59236 21.8901 4.94944 22.1929 4.94944 22.1536ZM9.55139 11.465C9.96872 11.465 9.92924 13.2651 9.6529 13.753C9.40476 12.9735 9.4104 11.465 9.55139 11.465ZM8.17532 19.1254C8.72236 18.1776 9.19045 17.0505 9.56831 16.0579C10.0364 16.9046 10.6342 17.5832 11.2658 18.0487C10.0928 18.2898 9.07202 18.7833 8.17532 19.1254ZM15.5971 18.845C15.5971 18.845 15.3151 19.1815 13.4935 18.4076C15.473 18.2618 15.8001 18.7104 15.5971 18.845Z" fill="#CB1E40"/>
<path d="M19.8315 8.06181V26.6579H1V1.47079V1H12.5343M19.8315 8.06181H12.5343V1M19.8315 8.06181L12.5343 1" stroke="#CB1E40" stroke-width="1.3" stroke-linejoin="round"/>
</svg>
